<mxfile host="app.diagrams.net" modified="2023-09-13T18:56:44.609Z" agent="Mozilla/5.0 (Windows NT 10.0; Win64; x64) AppleWebKit/537.36 (KHTML, like Gecko) Chrome/116.0.0.0 Safari/537.36" etag="n6KIoQ4tygUbAJqwniBC" version="21.7.5" type="device">
  <diagram id="R2lEEEUBdFMjLlhIrx00" name="Page-1">
    <mxGraphModel dx="1434" dy="758" grid="1" gridSize="10" guides="1" tooltips="1" connect="1" arrows="1" fold="1" page="1" pageScale="1" pageWidth="850" pageHeight="1100" math="0" shadow="0" extFonts="Permanent Marker^https://fonts.googleapis.com/css?family=Permanent+Marker">
      <root>
        <mxCell id="0" />
        <mxCell id="1" parent="0" />
        <mxCell id="YndeFq7swMQPopFpHH2F-1" value="Person" style="shape=table;startSize=30;container=1;collapsible=1;childLayout=tableLayout;fixedRows=1;rowLines=0;fontStyle=1;align=center;resizeLast=1;html=1;whiteSpace=wrap;" vertex="1" parent="1">
          <mxGeometry x="240" y="93" width="290" height="151" as="geometry" />
        </mxCell>
        <mxCell id="YndeFq7swMQPopFpHH2F-2" value="" style="shape=tableRow;horizontal=0;startSize=0;swimlaneHead=0;swimlaneBody=0;fillColor=none;collapsible=0;dropTarget=0;points=[[0,0.5],[1,0.5]];portConstraint=eastwest;top=0;left=0;right=0;bottom=0;html=1;" vertex="1" parent="YndeFq7swMQPopFpHH2F-1">
          <mxGeometry y="30" width="290" height="30" as="geometry" />
        </mxCell>
        <mxCell id="YndeFq7swMQPopFpHH2F-3" value="PK" style="shape=partialRectangle;connectable=0;fillColor=none;top=0;left=0;bottom=0;right=0;fontStyle=1;overflow=hidden;html=1;whiteSpace=wrap;" vertex="1" parent="YndeFq7swMQPopFpHH2F-2">
          <mxGeometry width="60" height="30" as="geometry">
            <mxRectangle width="60" height="30" as="alternateBounds" />
          </mxGeometry>
        </mxCell>
        <mxCell id="YndeFq7swMQPopFpHH2F-4" value="id" style="shape=partialRectangle;connectable=0;fillColor=none;top=0;left=0;bottom=0;right=0;align=left;spacingLeft=6;fontStyle=1;overflow=hidden;html=1;whiteSpace=wrap;fontSize=16;" vertex="1" parent="YndeFq7swMQPopFpHH2F-2">
          <mxGeometry x="60" width="230" height="30" as="geometry">
            <mxRectangle width="230" height="30" as="alternateBounds" />
          </mxGeometry>
        </mxCell>
        <mxCell id="YndeFq7swMQPopFpHH2F-5" value="" style="shape=tableRow;horizontal=0;startSize=0;swimlaneHead=0;swimlaneBody=0;fillColor=none;collapsible=0;dropTarget=0;points=[[0,0.5],[1,0.5]];portConstraint=eastwest;top=0;left=0;right=0;bottom=1;html=1;" vertex="1" parent="YndeFq7swMQPopFpHH2F-1">
          <mxGeometry y="60" width="290" height="30" as="geometry" />
        </mxCell>
        <mxCell id="YndeFq7swMQPopFpHH2F-6" value="UQ" style="shape=partialRectangle;connectable=0;fillColor=none;top=0;left=0;bottom=0;right=0;fontStyle=1;overflow=hidden;html=1;whiteSpace=wrap;" vertex="1" parent="YndeFq7swMQPopFpHH2F-5">
          <mxGeometry width="60" height="30" as="geometry">
            <mxRectangle width="60" height="30" as="alternateBounds" />
          </mxGeometry>
        </mxCell>
        <mxCell id="YndeFq7swMQPopFpHH2F-7" value="name" style="shape=partialRectangle;connectable=0;fillColor=none;top=0;left=0;bottom=0;right=0;align=left;spacingLeft=6;fontStyle=1;overflow=hidden;html=1;whiteSpace=wrap;fontSize=16;" vertex="1" parent="YndeFq7swMQPopFpHH2F-5">
          <mxGeometry x="60" width="230" height="30" as="geometry">
            <mxRectangle width="230" height="30" as="alternateBounds" />
          </mxGeometry>
        </mxCell>
        <mxCell id="YndeFq7swMQPopFpHH2F-8" value="" style="shape=tableRow;horizontal=0;startSize=0;swimlaneHead=0;swimlaneBody=0;fillColor=none;collapsible=0;dropTarget=0;points=[[0,0.5],[1,0.5]];portConstraint=eastwest;top=0;left=0;right=0;bottom=0;html=1;" vertex="1" parent="YndeFq7swMQPopFpHH2F-1">
          <mxGeometry y="90" width="290" height="31" as="geometry" />
        </mxCell>
        <mxCell id="YndeFq7swMQPopFpHH2F-9" value="" style="shape=partialRectangle;connectable=0;fillColor=none;top=0;left=0;bottom=0;right=0;editable=1;overflow=hidden;html=1;whiteSpace=wrap;" vertex="1" parent="YndeFq7swMQPopFpHH2F-8">
          <mxGeometry width="60" height="31" as="geometry">
            <mxRectangle width="60" height="31" as="alternateBounds" />
          </mxGeometry>
        </mxCell>
        <mxCell id="YndeFq7swMQPopFpHH2F-10" value="to_dict()" style="shape=partialRectangle;connectable=0;fillColor=none;top=0;left=0;bottom=0;right=0;align=left;spacingLeft=6;overflow=hidden;html=1;whiteSpace=wrap;fontSize=15;" vertex="1" parent="YndeFq7swMQPopFpHH2F-8">
          <mxGeometry x="60" width="230" height="31" as="geometry">
            <mxRectangle width="230" height="31" as="alternateBounds" />
          </mxGeometry>
        </mxCell>
        <mxCell id="YndeFq7swMQPopFpHH2F-11" value="" style="shape=tableRow;horizontal=0;startSize=0;swimlaneHead=0;swimlaneBody=0;fillColor=none;collapsible=0;dropTarget=0;points=[[0,0.5],[1,0.5]];portConstraint=eastwest;top=0;left=0;right=0;bottom=0;html=1;" vertex="1" parent="YndeFq7swMQPopFpHH2F-1">
          <mxGeometry y="121" width="290" height="30" as="geometry" />
        </mxCell>
        <mxCell id="YndeFq7swMQPopFpHH2F-12" value="" style="shape=partialRectangle;connectable=0;fillColor=none;top=0;left=0;bottom=0;right=0;editable=1;overflow=hidden;html=1;whiteSpace=wrap;" vertex="1" parent="YndeFq7swMQPopFpHH2F-11">
          <mxGeometry width="60" height="30" as="geometry">
            <mxRectangle width="60" height="30" as="alternateBounds" />
          </mxGeometry>
        </mxCell>
        <mxCell id="YndeFq7swMQPopFpHH2F-13" value="" style="shape=partialRectangle;connectable=0;fillColor=none;top=0;left=0;bottom=0;right=0;align=left;spacingLeft=6;overflow=hidden;html=1;whiteSpace=wrap;" vertex="1" parent="YndeFq7swMQPopFpHH2F-11">
          <mxGeometry x="60" width="230" height="30" as="geometry">
            <mxRectangle width="230" height="30" as="alternateBounds" />
          </mxGeometry>
        </mxCell>
        <mxCell id="YndeFq7swMQPopFpHH2F-15" style="edgeStyle=elbowEdgeStyle;rounded=0;orthogonalLoop=1;jettySize=auto;html=1;startArrow=none;endArrow=none;" edge="1" parent="1" source="YndeFq7swMQPopFpHH2F-20" target="YndeFq7swMQPopFpHH2F-16">
          <mxGeometry relative="1" as="geometry">
            <mxPoint x="340" y="453" as="targetPoint" />
          </mxGeometry>
        </mxCell>
        <mxCell id="YndeFq7swMQPopFpHH2F-21" style="edgeStyle=elbowEdgeStyle;rounded=0;orthogonalLoop=1;jettySize=auto;html=1;startArrow=none;endArrow=none;entryX=0;entryY=0.5;entryDx=0;entryDy=0;" edge="1" parent="1" source="YndeFq7swMQPopFpHH2F-22" target="YndeFq7swMQPopFpHH2F-28">
          <mxGeometry relative="1" as="geometry">
            <mxPoint x="400" y="643" as="targetPoint" />
          </mxGeometry>
        </mxCell>
        <UserObject label="APP URL" treeRoot="1" id="YndeFq7swMQPopFpHH2F-14">
          <mxCell style="whiteSpace=wrap;html=1;align=center;treeFolding=1;treeMoving=1;newEdgeStyle={&quot;edgeStyle&quot;:&quot;elbowEdgeStyle&quot;,&quot;startArrow&quot;:&quot;none&quot;,&quot;endArrow&quot;:&quot;none&quot;};fontStyle=1" vertex="1" parent="1">
            <mxGeometry x="30" y="550" width="120" height="60" as="geometry" />
          </mxCell>
        </UserObject>
        <mxCell id="YndeFq7swMQPopFpHH2F-31" style="edgeStyle=orthogonalEdgeStyle;rounded=0;orthogonalLoop=1;jettySize=auto;html=1;exitX=1;exitY=0.5;exitDx=0;exitDy=0;entryX=-0.033;entryY=0.375;entryDx=0;entryDy=0;entryPerimeter=0;" edge="1" parent="1" source="YndeFq7swMQPopFpHH2F-16" target="YndeFq7swMQPopFpHH2F-22">
          <mxGeometry relative="1" as="geometry" />
        </mxCell>
        <mxCell id="YndeFq7swMQPopFpHH2F-16" value="Person" style="swimlane;fontStyle=0;childLayout=stackLayout;horizontal=1;startSize=26;fillColor=none;horizontalStack=0;resizeParent=1;resizeParentMax=0;resizeLast=0;collapsible=1;marginBottom=0;html=1;" vertex="1" parent="1">
          <mxGeometry x="235" y="410" width="190" height="52" as="geometry" />
        </mxCell>
        <mxCell id="YndeFq7swMQPopFpHH2F-17" value="&amp;lt;&amp;lt;POST&amp;gt;&amp;gt; create_user()" style="text;strokeColor=none;fillColor=none;align=left;verticalAlign=top;spacingLeft=4;spacingRight=4;overflow=hidden;rotatable=0;points=[[0,0.5],[1,0.5]];portConstraint=eastwest;whiteSpace=wrap;html=1;fontSize=14;fontStyle=0" vertex="1" parent="YndeFq7swMQPopFpHH2F-16">
          <mxGeometry y="26" width="190" height="26" as="geometry" />
        </mxCell>
        <mxCell id="YndeFq7swMQPopFpHH2F-23" value="" style="edgeStyle=elbowEdgeStyle;rounded=0;orthogonalLoop=1;jettySize=auto;html=1;startArrow=none;endArrow=none;" edge="1" parent="1" source="YndeFq7swMQPopFpHH2F-14" target="YndeFq7swMQPopFpHH2F-20">
          <mxGeometry relative="1" as="geometry">
            <mxPoint x="340" y="445" as="targetPoint" />
            <mxPoint x="160" y="503" as="sourcePoint" />
          </mxGeometry>
        </mxCell>
        <mxCell id="YndeFq7swMQPopFpHH2F-20" value="/api" style="text;html=1;align=center;verticalAlign=middle;resizable=0;points=[];autosize=1;strokeColor=none;fillColor=none;fontSize=20;fontStyle=1" vertex="1" parent="1">
          <mxGeometry x="190" y="503" width="60" height="40" as="geometry" />
        </mxCell>
        <mxCell id="YndeFq7swMQPopFpHH2F-22" value="/name" style="text;html=1;align=center;verticalAlign=middle;resizable=0;points=[];autosize=1;strokeColor=none;fillColor=none;fontSize=20;fontStyle=1" vertex="1" parent="1">
          <mxGeometry x="410" y="503" width="80" height="40" as="geometry" />
        </mxCell>
        <mxCell id="YndeFq7swMQPopFpHH2F-26" value="Person" style="swimlane;fontStyle=0;childLayout=stackLayout;horizontal=1;startSize=26;fillColor=none;horizontalStack=0;resizeParent=1;resizeParentMax=0;resizeLast=0;collapsible=1;marginBottom=0;html=1;" vertex="1" parent="1">
          <mxGeometry x="540" y="446" width="240" height="104" as="geometry" />
        </mxCell>
        <mxCell id="YndeFq7swMQPopFpHH2F-27" value="&amp;lt;&amp;lt;GET&amp;gt;&amp;gt;&amp;nbsp; get_user(name)" style="text;strokeColor=none;fillColor=none;align=left;verticalAlign=top;spacingLeft=4;spacingRight=4;overflow=hidden;rotatable=0;points=[[0,0.5],[1,0.5]];portConstraint=eastwest;whiteSpace=wrap;html=1;fontSize=14;" vertex="1" parent="YndeFq7swMQPopFpHH2F-26">
          <mxGeometry y="26" width="240" height="26" as="geometry" />
        </mxCell>
        <mxCell id="YndeFq7swMQPopFpHH2F-28" value="&amp;lt;&amp;lt;PUT&amp;gt;&amp;gt; update_name(name)" style="text;strokeColor=none;fillColor=none;align=left;verticalAlign=top;spacingLeft=4;spacingRight=4;overflow=hidden;rotatable=0;points=[[0,0.5],[1,0.5]];portConstraint=eastwest;whiteSpace=wrap;html=1;fontSize=14;" vertex="1" parent="YndeFq7swMQPopFpHH2F-26">
          <mxGeometry y="52" width="240" height="26" as="geometry" />
        </mxCell>
        <mxCell id="YndeFq7swMQPopFpHH2F-29" value="&amp;lt;&amp;lt;DELETE&amp;gt;&amp;gt; delete_user(name)" style="text;strokeColor=none;fillColor=none;align=left;verticalAlign=top;spacingLeft=4;spacingRight=4;overflow=hidden;rotatable=0;points=[[0,0.5],[1,0.5]];portConstraint=eastwest;whiteSpace=wrap;html=1;fontSize=14;" vertex="1" parent="YndeFq7swMQPopFpHH2F-26">
          <mxGeometry y="78" width="240" height="26" as="geometry" />
        </mxCell>
        <mxCell id="YndeFq7swMQPopFpHH2F-32" value="Database Class" style="text;html=1;align=center;verticalAlign=middle;resizable=0;points=[];autosize=1;strokeColor=none;fillColor=none;fontSize=22;fontStyle=1" vertex="1" parent="1">
          <mxGeometry x="280" y="30" width="190" height="40" as="geometry" />
        </mxCell>
        <mxCell id="YndeFq7swMQPopFpHH2F-33" value="API ROUTING" style="text;html=1;align=center;verticalAlign=middle;resizable=0;points=[];autosize=1;strokeColor=none;fillColor=none;fontSize=22;fontStyle=1" vertex="1" parent="1">
          <mxGeometry x="310" y="340" width="170" height="40" as="geometry" />
        </mxCell>
      </root>
    </mxGraphModel>
  </diagram>
</mxfile>
